<svg xmlns="http://www.w3.org/2000/svg" viewBox="0 0 1920 1080"><defs><style>.cls-1{fill:#dbebc0;}.cls-2{fill:#c3b299;}.cls-3{fill:#cbd4c2;}.cls-4{fill:#523249;}.cls-5{fill:#815355;}.cls-6{fill:none;stroke:#fff;stroke-linecap:round;stroke-miterlimit:10;stroke-width:12px;}</style></defs><g id="Lag_1" data-name="Lag 1"><rect class="cls-1" x="1403.57" y="759.33" width="77" height="71.76"/><rect class="cls-2" x="1356.25" y="759.56" width="62.16" height="71.53"/><rect class="cls-3" x="1356.25" y="658.55" width="124.31" height="101.02"/><rect class="cls-4" x="1186.72" y="658.55" width="169.53" height="172.54"/><rect class="cls-5" x="1186.72" y="831.09" width="293.84" height="248.91"/><rect class="cls-2" x="1480.56" y="658.55" width="438.14" height="421.45"/><rect class="cls-1" x="1186.72" width="731.98" height="658.55"/><rect class="cls-3" width="1186.72" height="1080"/></g><g id="Lag_2" data-name="Lag 2"><path class="cls-6" d="M8.25,1073.79c2-77.74,21.44-508.8,409.32-811.55C518.1,183.77,819.86-23.82,1218.34,10.17c97.24,8.3,330.16,28.16,511,198.88,29.25,27.62,207.56,201.39,189.38,449.5-4.68,63.87-15.52,211.87-149.67,318-109.92,86.92-239.83,96-286.44,97.29-27.94-1.72-141.62-11.57-221.18-95-17.38-18.21-70.49-73.9-67.57-152.67.64-17.21,3.05-62.74,39.79-103.64,9.91-11,55.82-59.18,124.36-57.41,11.74.31,43.68,1.54,72.58,22.12,28.38,20.2,44,52,42.62,81.52-.43,9.3-1.33,23.82-13.09,36.84-3.16,3.51-17.71,18.65-41.69,18.91-25.58.29-41-16.57-43.55-19.51a49.55,49.55,0,0,1-11.75-39.86"/></g></svg>
