<svg xmlns="http://www.w3.org/2000/svg" viewBox="0 0 1080 1926"><defs><style>.cls-1{fill:#dbebc0;}.cls-2{fill:#c3b299;}.cls-3{fill:#cbd4c2;}.cls-4{fill:#523249;}.cls-5{fill:#815355;}.cls-6{fill:none;stroke:#fff;stroke-linecap:round;stroke-miterlimit:10;stroke-width:12px;}</style></defs><g id="Lag_2" data-name="Lag 2"><rect class="cls-1" x="246.29" y="1406.18" width="77" height="71.76" transform="translate(1726.86 1157.27) rotate(90)"/><rect class="cls-2" x="253.59" y="1351.57" width="62.16" height="71.53" transform="translate(1672 1102.66) rotate(90)"/><rect class="cls-3" x="308.79" y="1367.9" width="124.31" height="101.02" transform="translate(1789.35 1047.47) rotate(90)"/><rect class="cls-4" x="250.41" y="1185.22" width="169.53" height="172.54" transform="translate(1606.67 936.31) rotate(90)"/><rect class="cls-5" x="-22.47" y="1209.19" width="293.84" height="248.91" transform="translate(1458.1 1209.19) rotate(90)"/><rect class="cls-2" x="-8.34" y="1488.91" width="438.14" height="421.45" transform="translate(1910.36 1488.91) rotate(90)"/><rect class="cls-1" x="384.73" y="1223.44" width="731.98" height="658.55" transform="translate(2303.44 801.99) rotate(90)"/><rect class="cls-3" x="-53.36" y="53.36" width="1186.72" height="1080" transform="translate(1133.36 53.36) rotate(90)"/><path class="cls-6" d="M6.21,8.25C84,10.25,515,29.69,817.76,417.57c78.47,100.53,286.06,402.29,252.07,800.77-8.3,97.24-28.16,330.16-198.88,511-27.62,29.25-201.39,207.56-449.5,189.38C357.58,1914,209.58,1903.18,103.5,1769c-86.92-109.92-96-239.83-97.29-286.44,1.72-27.94,11.57-141.62,95-221.18,18.21-17.38,73.9-70.49,152.67-67.57,17.21.64,62.74,3.05,103.64,39.79,11,9.91,59.18,55.82,57.41,124.36-.31,11.74-1.54,43.68-22.12,72.58-20.2,28.38-52,44-81.52,42.62-9.3-.43-23.82-1.33-36.84-13.09-3.51-3.16-18.65-17.71-18.91-41.69-.29-25.58,16.57-41,19.51-43.55a49.55,49.55,0,0,1,39.86-11.75"/></g></svg>
